HIERARCHY
ROOT Hips
{
	OFFSET 0.00 0.00 0.00
	CHANNELS 6 Xposition Yposition Zposition Xrotation Yrotation Zrotation
	JOINT LeftUpLeg
	{
		OFFSET 2.94355 0.00000 0.00000
		CHANNELS 3 Xrotation Yrotation Zrotation
		JOINT LeftLeg
		{
			OFFSET 0.00000 -16.73768 0.00000
			CHANNELS 3 Xrotation Yrotation Zrotation
			JOINT LeftFoot
			{
				OFFSET 0.00000 -15.48883 0.00000
				CHANNELS 3 Xrotation Yrotation Zrotation
				JOINT LeftToeBase
				{
					OFFSET 0.00000 -1.60986 6.00809
					CHANNELS 3 Xrotation Yrotation Zrotation
					End Site
					{
						OFFSET 0.00000 0.00000 2.95275
					}
				}
			}
		}
	}
	JOINT RightUpLeg
	{
		OFFSET -2.94355 0.00000 0.00000
		CHANNELS 3 Xrotation Yrotation Zrotation
		JOINT RightLeg
		{
			OFFSET 0.00000 -16.73768 0.00000
			CHANNELS 3 Xrotation Yrotation Zrotation
			JOINT RightFoot
			{
				OFFSET 0.00000 -15.48883 0.00000
				CHANNELS 3 Xrotation Yrotation Zrotation
				JOINT RightToeBase
				{
					OFFSET 0.00000 -1.60986 6.00809
					CHANNELS 3 Xrotation Yrotation Zrotation
					End Site
					{
						OFFSET 0.00000 0.00000 2.95275
					}
				}
			}
		}
	}
	JOINT Spine
	{
		OFFSET 0.00000 0.03937 0.00000
		CHANNELS 3 Xrotation Yrotation Zrotation
		JOINT Spine1
		{
			OFFSET 0.00000 11.10029 0.00000
			CHANNELS 3 Xrotation Yrotation Zrotation
			JOINT Neck
			{
				OFFSET 0.00000 8.89215 0.00000
				CHANNELS 3 Xrotation Yrotation Zrotation
				JOINT Head
				{
					OFFSET 0.00000 5.25932 0.00000
					CHANNELS 3 Xrotation Yrotation Zrotation
					End Site
					{
						OFFSET 0.00000 4.52755 0.00000
					}
				}
			}
			JOINT LeftShoulder
			{
				OFFSET 0.00000 8.89215 0.00000
				CHANNELS 3 Xrotation Yrotation Zrotation
				JOINT LeftArm
				{
					OFFSET 6.13318 -0.00002 0.00000
					CHANNELS 3 Xrotation Yrotation Zrotation
					JOINT LeftForeArm
					{
						OFFSET 10.77766 -0.00004 0.00000
						CHANNELS 3 Xrotation Yrotation Zrotation
						JOINT LeftHand
						{
							OFFSET 9.97045 -0.00004 0.00000
							CHANNELS 3 Xrotation Yrotation Zrotation
							JOINT LeftHandThumb
							{
								OFFSET 0.00000 0.00000 0.00000
								CHANNELS 3 Xrotation Yrotation Zrotation
								End Site
								{
									OFFSET 0.00000 0.00000 3.93700
								}
							}
							JOINT L_Wrist_End
							{
								OFFSET 3.93700 -0.00001 0.00000
								CHANNELS 3 Xrotation Yrotation Zrotation
							}
						}
					}
				}
			}
			JOINT RightShoulder
			{
				OFFSET 0.00000 8.89215 0.00000
				CHANNELS 3 Xrotation Yrotation Zrotation
				JOINT RightArm
				{
					OFFSET -6.13318 -0.00002 0.00000
					CHANNELS 3 Xrotation Yrotation Zrotation
					JOINT RightForeArm
					{
						OFFSET -10.77766 -0.00004 0.00000
						CHANNELS 3 Xrotation Yrotation Zrotation
						JOINT RightHand
						{
							OFFSET -9.97045 -0.00004 0.00000
							CHANNELS 3 Xrotation Yrotation Zrotation
							JOINT RightHandThumb
							{
								OFFSET 0.00000 0.00000 0.00000
								CHANNELS 3 Xrotation Yrotation Zrotation
								End Site
								{
									OFFSET 0.00000 0.00000 3.93700
								}
							}
							JOINT R_Wrist_End
							{
								OFFSET -3.93700 -0.00001 0.00000
								CHANNELS 3 Xrotation Yrotation Zrotation
							}
						}
					}
				}
			}
		}
	}
}
MOTION
Frames: 12
Frame Time: 0.008333
 -82.4936 34.1441 -2.6458 53.6964 81.3026 -47.4793 -2.0357 0.9958 2.6598 5.4904 -0.0000 0.0000 -2.0163 19.3573 -48.2010 -10.3569 -0.0000 -0.0000 -8.7623 -2.0225 -10.5995 11.5791 -0.0000 0.0000 -13.5272 3.2631 8.0955 -1.9196 0.0000 0.0000 -8.7282 1.5847 -9.5723 -0.4486 0.8657 4.8826 19.7650 25.3517 -1.6682 13.4967 -29.2509 13.5630 -6.0271 -0.9417 -8.6132 22.0902 -6.3833 -72.7443 -0.0001 -27.4635 -0.0000 -11.8865 18.9489 -6.5565 0.0000 -0.0000 -0.0000 0.0000 -0.0000 -0.0000 0.1198 -8.8683 4.3580 14.0631 15.3043 69.8479 -0.0002 36.9210 0.0001 -8.0687 2.5942 -9.6393 -0.0000 0.0000 -0.0000 -0.0000 0.0000 -0.0000
 -82.5778 34.1372 -2.5766 54.1594 81.1667 -47.8755 -2.5637 1.0529 2.7357 5.9938 0.0000 -0.0000 -2.1018 19.3644 -48.2121 -10.1338 -0.0000 -0.0000 -9.2492 -2.0025 -10.5463 11.9721 0.0000 0.0000 -13.6156 3.3835 8.2669 -2.0019 0.0000 0.0000 -8.6220 1.5912 -9.5434 -0.3803 0.8948 4.9484 20.0315 25.1198 -1.6529 13.5837 -29.3765 13.6782 -6.2037 -1.0630 -8.7944 22.2185 -6.8388 -71.8775 -0.0001 -27.6098 -0.0000 -11.2721 18.8599 -7.5824 -0.0000 -0.0000 0.0000 -0.0000 -0.0000 0.0000 0.0642 -8.4880 4.5596 14.3841 16.4014 69.8670 -0.0002 37.0023 0.0001 -8.2491 2.7795 -9.9695 0.0000 0.0000 0.0000 0.0000 0.0000 0.0000
 -82.6686 34.1350 -2.5062 55.0151 80.9712 -48.6470 -3.1654 0.9848 2.8073 6.4451 -0.0000 -0.0000 -2.0374 19.4202 -48.2996 -10.2356 -0.0000 -0.0000 -9.8320 -2.1143 -10.5050 12.3230 0.0000 -0.0000 -13.7487 3.6105 8.1065 -1.8251 -0.0000 -0.0000 -8.5164 1.5932 -9.5185 -0.4593 0.9169 5.0129 20.3449 24.9323 -1.7222 13.9027 -29.4734 14.0472 -6.2325 -1.0852 -9.1073 22.2397 -7.2585 -70.7973 -0.0001 -27.8269 -0.0000 -11.2813 19.8013 -10.0715 -0.0000 -0.0000 0.0000 -0.0000 -0.0000 0.0000 0.2894 -8.1721 4.8270 14.4093 17.5410 69.8371 -0.0002 37.0179 0.0001 -7.7726 3.0086 -9.9696 -0.0000 0.0000 -0.0000 -0.0000 0.0000 -0.0000
 -82.7640 34.1303 -2.4416 56.3123 80.8184 -49.8357 -3.8151 1.0080 2.8563 6.9164 0.0000 -0.0000 -2.0130 19.3153 -48.4275 -10.1693 0.0000 0.0000 -10.4231 -2.3406 -10.5110 12.6383 0.0000 -0.0000 -13.8239 3.8447 8.1940 -1.8344 -0.0000 -0.0000 -8.4006 1.5714 -9.5079 -0.5142 0.9195 5.0882 20.5922 24.7072 -1.7651 14.2713 -29.6175 14.3831 -6.2639 -1.2105 -9.3606 22.1938 -7.7090 -69.8023 -0.0001 -27.9040 -0.0000 -10.7622 20.3400 -12.0334 -0.0000 -0.0000 0.0000 -0.0000 -0.0000 0.0000 0.4362 -7.8196 5.0394 14.5328 18.6920 69.7452 -0.0002 37.0932 0.0001 -7.7190 3.2533 -10.0688 0.0000 0.0000 0.0000 0.0000 0.0000 0.0000
 -82.8531 34.1236 -2.3813 57.1989 80.7934 -50.6051 -4.3273 1.1991 2.9092 7.3906 -0.0000 0.0000 -1.9311 18.8949 -48.8488 -10.4403 0.0000 0.0000 -10.7865 -2.3878 -10.5346 12.8850 0.0000 -0.0000 -13.9065 3.8900 8.4204 -1.7703 -0.0000 -0.0000 -8.2394 1.5435 -9.4836 -0.3600 0.9286 5.1500 20.6935 24.4977 -1.7605 14.6961 -29.8073 14.6473 -6.3453 -1.4631 -9.5162 22.0736 -8.0563 -68.9454 -0.0001 -27.9406 -0.0000 -10.0569 20.8626 -13.7697 -0.0000 0.0000 -0.0000 -0.0000 0.0000 -0.0000 0.2797 -7.4796 5.1346 14.7223 19.6114 69.7792 -0.0002 37.2142 0.0001 -7.8111 3.1924 -11.0169 -0.0000 0.0000 -0.0000 -0.0000 0.0000 -0.0000
 -82.9622 34.1219 -2.3258 59.5915 80.6340 -52.8167 -5.1065 0.8810 2.8572 7.8314 0.0000 -0.0000 -1.8247 19.0078 -48.7945 -10.3947 0.0000 0.0000 -11.4326 -2.7032 -10.6184 13.0563 -0.0000 0.0000 -13.9096 4.0265 8.2566 -1.8488 0.0000 0.0000 -8.0849 1.4890 -9.5053 -0.5530 0.9089 5.1957 20.9198 24.2782 -1.9050 15.3124 -29.9749 15.3316 -6.2514 -1.5082 -9.8584 22.0569 -8.8241 -67.6466 -0.0001 -28.0866 -0.0000 -9.7052 21.6233 -16.1375 0.0000 -0.0000 -0.0000 0.0000 -0.0000 -0.0000 0.6360 -7.2969 5.2987 14.4687 20.3930 69.6771 -0.0002 37.3644 0.0001 -6.3622 3.3756 -11.5916 0.0000 -0.0000 0.0000 0.0000 -0.0000 0.0000
 -83.0939 34.1156 -2.2745 62.1029 80.3940 -55.1306 -6.0594 0.7779 2.8052 8.3746 -0.0000 0.0000 -1.7379 18.8695 -48.8892 -10.6691 0.0000 -0.0000 -12.1794 -2.6797 -10.7027 13.3242 -0.0000 -0.0000 -13.9817 3.8993 8.2927 -1.8547 0.0000 -0.0000 -7.9596 1.4486 -9.5411 -0.6575 0.9022 5.2511 20.5344 23.9821 -1.6750 16.4471 -30.0760 15.6948 -6.1597 -1.6910 -9.9887 21.8298 -9.5789 -66.6698 -0.0001 -28.0531 -0.0000 -9.2236 22.0688 -17.1089 -0.0000 0.0000 -0.0000 -0.0000 0.0000 -0.0000 0.6628 -7.0846 5.3419 14.3912 20.8965 69.6171 -0.0002 37.6681 0.0001 -5.0447 3.0501 -12.9642 -0.0000 0.0000 -0.0000 -0.0000 0.0000 -0.0000
 -83.1840 34.1079 -2.2100 62.6540 80.4634 -55.5895 -6.4746 1.2151 2.8923 8.8532 0.0000 0.0000 -1.7364 18.2448 -48.9885 -10.5089 -0.0000 -0.0000 -12.3252 -2.5178 -10.6718 13.4574 0.0000 -0.0000 -14.0293 3.6858 8.5681 -1.7091 0.0000 -0.0000 -7.7504 1.4435 -9.5130 -0.2273 0.9507 5.2982 20.5784 23.7281 -1.6578 16.5995 -30.2373 16.0386 -6.7715 -1.9181 -9.9107 22.0452 -9.9597 -66.0518 -0.0001 -28.0170 -0.0000 -8.4790 22.0883 -17.2785 -0.0000 0.0000 -0.0000 -0.0000 0.0000 -0.0000 0.3394 -6.8016 5.3547 14.3203 21.1243 69.6325 -0.0002 37.7391 0.0001 -3.9314 3.0654 -13.7714 -0.0000 0.0000 -0.0000 -0.0000 0.0000 -0.0000
 -83.3444 34.1068 -2.1651 67.2874 80.0682 -60.0631 -7.9034 0.9994 2.8743 9.5497 0.0000 -0.0000 -1.6655 17.9724 -49.1151 -10.6078 -0.0000 0.0000 -13.3784 -2.4944 -10.7152 13.7527 0.0000 -0.0000 -13.9994 3.2758 8.7723 -1.7450 -0.0000 -0.0000 -7.6457 1.2990 -9.4649 -0.5948 0.8221 5.3222 20.5454 23.4921 -1.8159 17.3920 -30.4306 16.8465 -6.4196 -1.7910 -10.1111 21.7877 -11.4590 -64.6927 -0.0001 -27.9466 -0.0000 -7.3372 22.1637 -17.8359 -0.0000 -0.0000 -0.0000 -0.0000 -0.0000 -0.0000 0.4324 -7.0003 5.4722 14.0063 21.5251 69.4170 -0.0002 37.7735 0.0001 -3.0378 3.0562 -14.1982 -0.0000 0.0000 -0.0000 -0.0000 0.0000 -0.0000
 -83.5187 34.1034 -2.1191 70.5477 79.4986 -63.2326 -9.4018 0.9222 2.9287 10.3453 -0.0000 0.0000 -1.6618 17.7651 -49.0606 -10.5411 0.0000 -0.0000 -14.5798 -2.3436 -10.6770 14.1845 0.0000 0.0000 -13.9572 3.0144 8.5250 -1.7816 -0.0000 -0.0000 -7.6565 1.2853 -9.3818 -0.7865 0.8026 5.3992 20.2847 23.0456 -1.5281 18.0850 -30.5857 16.9508 -6.4236 -2.1774 -10.0835 21.6030 -12.2069 -63.9728 -0.0001 -27.8156 -0.0000 -7.0943 21.8922 -17.0504 -0.0000 -0.0000 -0.0000 -0.0000 -0.0000 -0.0000 0.6630 -6.7620 5.5536 13.5050 21.6391 69.2580 -0.0002 37.7380 0.0001 -2.8619 3.1952 -14.6157 0.0000 0.0000 0.0000 0.0000 0.0000 0.0000
 -83.6541 34.1005 -2.0786 72.6943 79.3609 -65.3039 -10.2559 0.6792 2.9496 10.9403 -0.0000 0.0000 -1.5926 17.6410 -49.1078 -10.6089 0.0000 -0.0000 -15.2255 -2.6242 -10.7138 14.4724 0.0000 0.0000 -13.9240 3.0373 8.5919 -1.7614 -0.0000 -0.0000 -7.4399 1.2430 -9.2663 -0.6169 0.8037 5.4728 19.9281 22.8318 -1.5557 19.1022 -30.7968 17.6771 -6.4655 -2.5531 -10.0802 21.2766 -12.7706 -63.3486 -0.0001 -27.6289 -0.0000 -7.0052 21.4148 -16.2143 0.0000 0.0000 -0.0000 0.0000 0.0000 -0.0000 0.5930 -6.5608 5.5293 13.1767 21.8531 69.1008 -0.0002 37.5502 0.0001 -2.1418 3.4230 -14.1894 -0.0000 0.0000 -0.0000 -0.0000 0.0000 -0.0000
 -83.8337 34.0959 -2.0238 76.0793 78.8688 -68.6239 -11.7794 0.8538 3.0524 11.8293 -0.0000 0.0000 -1.5661 17.0005 -49.1120 -10.8153 -0.0000 -0.0000 -16.2742 -2.3350 -10.6308 14.8773 -0.0000 0.0000 -13.8698 2.4357 8.4662 -1.8095 0.0000 -0.0000 -7.2552 1.1411 -9.1925 -0.8694 0.7375 5.5281 19.8982 22.3422 -1.3789 19.1316 -30.9110 17.8770 -6.5830 -2.6592 -9.9261 21.1722 -13.7289 -62.6906 -0.0001 -27.5165 -0.0000 -7.0781 20.9912 -14.6333 0.0000 0.0000 -0.0000 0.0000 0.0000 -0.0000 0.4889 -6.7839 5.5982 12.9060 22.2718 68.8359 -0.0002 37.2841 0.0001 -2.4285 3.6163 -13.8610 -0.0000 0.0000 -0.0000 -0.0000 0.0000 -0.0000
